<svg width="66" height="66" viewBox="0 0 66 66" fill="none" xmlns="http://www.w3.org/2000/svg">
<g clip-path="url(#clip0)">
<path d="M65.0022 53.7828L37.8638 7.07042C36.616 4.96485 34.8224 3.71711 32.9508 3.71711C31.0012 3.71711 29.2075 4.96485 28.0378 7.07042L1.05531 53.7828C-0.192433 55.8884 -0.348401 58.072 0.665391 59.7096C1.6012 61.3473 3.5508 62.2831 6.04629 62.2831H60.0112C62.4287 62.2831 64.3783 61.3473 65.3921 59.7096C66.3279 58.072 66.1719 55.8884 65.0022 53.7828ZM62.4287 58.072C62.0388 58.6958 61.181 59.0078 59.9332 59.0078H5.9683C4.72056 59.0078 3.78475 58.6179 3.47281 58.072C3.08289 57.4481 3.23886 56.5123 3.86273 55.4205L30.8452 8.70809C31.4691 7.61631 32.2489 6.99244 32.9508 6.99244C33.6526 6.99244 34.4325 7.61631 35.0563 8.70809L62.0388 55.4205C62.6627 56.5123 62.8186 57.4481 62.4287 58.072Z" fill="#B50000" fill-opacity="0.25"/>
<path d="M32.9508 19.0799C32.015 19.0799 31.3131 19.7818 31.3131 20.7176V42.3972C31.3131 43.333 32.015 44.0348 32.9508 44.0348C33.8866 44.0348 34.5884 43.333 34.5884 42.3972V20.7176C34.5884 19.7818 33.8866 19.0799 32.9508 19.0799Z" fill="#B50000" fill-opacity="0.7"/>
<path d="M32.9507 53.4709C34.5443 53.4709 35.8361 52.179 35.8361 50.5855C35.8361 48.9919 34.5443 47.7001 32.9507 47.7001C31.3572 47.7001 30.0653 48.9919 30.0653 50.5855C30.0653 52.179 31.3572 53.4709 32.9507 53.4709Z" fill="#B50000" fill-opacity="0.7"/>
</g>
<defs>
<clipPath id="clip0">
<rect width="66" height="66" fill="white"/>
</clipPath>
</defs>
</svg>
