<svg width="26" height="26" viewBox="0 0 26 26" fill="none" xmlns="http://www.w3.org/2000/svg">
<circle cx="13" cy="13" r="13" fill="white"/>
<path d="M18.6518 18.655C19.3972 17.9151 19.9887 17.0349 20.3923 16.0654C20.7959 15.0958 21.0036 14.0559 21.0034 13.0056C21.0047 8.58562 17.4257 5.0146 13.0057 5.01334C8.58571 5.01207 5.00469 8.58105 5.00343 13.0011C5.00236 16.731 7.55147 19.8418 11.0012 20.7328L11.0018 18.6528C9.83242 18.2405 8.81978 17.4755 8.1036 16.4633C7.38743 15.4511 7.00303 14.2416 7.00343 13.0016C7.00438 9.69162 9.69514 7.00239 13.0051 7.00334C16.3151 7.00428 19.0044 9.69505 19.0034 13.0051C19.003 14.6651 18.3125 16.1449 17.2222 17.2245L14.0031 14.0036L14.0011 21.0036L21.0011 21.0056L18.6518 18.655Z" fill="#19488E"/>
</svg>
